# xmcd CD database file
#
# Track frame offsets:
#	150
#	15471
#	33350
#	54063
#	69384
#	89354
#	110264
#	124122
#	137963
#	157088
#	173976
#	186169
#
# Disc length: 2701 seconds
#
# Revision: 0
# Processed by: cddbd v1.5.1PL2 Copyright (c) Steve Scherf et al.
# Submitted via: CDex 1.51
#
DISCID=9a0a8b0c
DTITLE=Feng Shui - stress
DYEAR=2004
DGENRE=New Age
TTITLE0=dreaming love
TTITLE1=on the sand
TTITLE2=sea of dreams
TTITLE3=flying with the clouds
TTITLE4=toward the horizon
TTITLE5=search for the cause
TTITLE6=relaxing the body
TTITLE7=powerful mind
TTITLE8=infinite desires
TTITLE9=heaven gives it to you
TTITLE10=star seeker
TTITLE11=hunting illusions
EXTD=YEAR: 2004
EXTT0=
EXTT1=
EXTT2=
EXTT3=
EXTT4=
EXTT5=
EXTT6=
EXTT7=
EXTT8=
EXTT9=
EXTT10=
EXTT11=
PLAYORDER=
